<svg width="1440" height="548" viewBox="0 0 1440 548" fill="none" xmlns="http://www.w3.org/2000/svg">
<g clip-path="url(#clip0_975_4079)">
<rect width="1440" height="548" fill="url(#paint0_linear_975_4079)"/>
<path d="M254.998 248.387C-49.5647 325.45 -241.171 553.058 -251 633.702C-218.958 575.9 -89.3872 566.268 23.6844 542.185C160.692 513.005 308.007 513.287 308.007 513.287C308.007 513.287 9.89465 673.182 86.3318 643.331C132.735 625.209 358.82 586.118 486.279 591.908C567.724 595.608 659.871 641.169 876.652 633.698C1016.4 628.881 1060.09 582.658 1145.24 560.458L1064.59 566.268C891.652 593.758 836.494 535.763 770.633 513.287C799.548 510.076 868.942 502.691 915.204 498.837C973.032 494.021 1308.84 381.098 1382.65 330.262C1526.55 231.154 1598.74 233.004 1729.62 99.0731C1633.91 192.304 1442.08 221.09 1329.64 253.199C1352.13 240.355 1421.2 186.733 1517.58 74.9955C1613.96 -36.7422 1763.35 -64.6797 1826 -64.6812C1707.13 -111.24 1405.78 -148.487 1151.34 74.9955C833.281 354.349 553.777 306.185 626.063 296.552C683.891 288.845 746.538 222.7 770.633 190.59C647.266 275.359 465.428 296.552 389.93 296.552C340.134 304.579 271.382 314.854 394.749 291.735C518.117 268.616 654.977 144.031 707.986 84.6284C683.891 107.105 559.56 171.324 254.998 248.387Z" fill="#E63715" fill-opacity="0.24"/>
<path d="M1329.64 456.857C1271.81 479.976 1184.04 478.047 1147.09 495.707C1166.37 495.707 1305.23 560.308 1365.51 517.907C1396.37 496.206 1389.58 464.257 1493.23 390.256C1552.46 353.255 1580.23 343.491 1569.12 345.855C1365.51 389.199 1401.93 427.958 1329.64 456.857Z" fill="#E63715" fill-opacity="0.24"/>
<path d="M1353.74 575.9C1295.91 595.166 1188.28 622.459 1141.7 633.698C1199.53 633.698 1295.17 664.059 1328.49 636.309C1348.36 619.762 1411.56 569.479 1445.3 566.268C1438.87 561.451 1411.56 556.635 1353.74 575.9Z" fill="#E63715" fill-opacity="0.24"/>
<path d="M789.91 113.522C867.014 92.6543 1045.32 27.7981 1141.7 -64.6812C1116 4.35139 1009.66 136.638 789.91 113.522Z" fill="#E63715" fill-opacity="0.24"/>
<path d="M151.162 225.551L130.866 212.318H200.131L175.325 324.316L127 339.163L151.162 225.551Z" fill="white"/>
<path d="M241.691 212.318H316.755L310.634 239.753H249.101L237.18 295.267H267.464L271.008 278.484H253.289L258.121 257.182H307.735C305.05 270.092 299.101 298.689 296.781 309.792C294.461 320.894 286.15 323.24 282.284 323.025C267.786 323.455 234.474 324.057 217.206 323.025C199.938 321.992 196.266 306.887 196.588 299.463C198.95 283.863 205.093 248.855 210.763 233.62C216.433 218.386 233.744 213.071 241.691 212.318Z" fill="white"/>
<path d="M333.508 212.318L309.345 323.025H347.361L358.959 270.415L384.088 323.025H416.626L441.111 212.318H404.706L394.075 262.346L368.624 212.318H333.508Z" fill="white"/>
<path d="M430.157 323.025L454.964 212.318H495.557L470.428 323.025H430.157Z" fill="white"/>
<path d="M605.737 212.318H507.799L502 239.107H531.317L512.31 323.025H552.58L571.91 239.107H600.261L605.737 212.318Z" fill="white"/>
<path d="M617.013 212.318H740.08L709.797 239.107H654.062L650.518 256.214H694.655L689.823 278.807H645.364L642.464 295.59H708.83L701.098 323.025H593.495L617.013 212.318Z" fill="white"/>
<path d="M395.662 115.715C339.992 129.809 304.969 171.436 303.172 186.184C309.029 175.613 332.713 173.852 353.381 169.447C378.424 164.111 405.352 164.162 405.352 164.162C405.352 164.162 350.86 193.405 364.832 187.945C373.314 184.631 414.64 177.482 437.938 178.541C452.825 179.218 469.669 187.55 509.294 186.184C534.839 185.303 542.825 176.849 558.389 172.789L543.647 173.852C512.035 178.879 501.953 168.273 489.915 164.162C495.2 163.575 507.884 162.224 516.341 161.519C526.911 160.639 588.292 139.986 601.784 130.689C628.088 112.564 641.283 112.902 665.206 88.4078C647.712 105.458 612.648 110.723 592.095 116.595C596.205 114.246 608.831 104.44 626.448 84.0044C644.066 63.569 671.372 58.4596 682.824 58.4593C661.096 49.9443 606.012 43.1323 559.503 84.0044C501.366 135.094 450.276 126.286 463.489 124.524C474.059 123.115 485.51 111.017 489.915 105.145C467.365 120.648 434.127 124.524 420.327 124.524C411.224 125.992 398.657 127.871 421.207 123.643C443.758 119.415 468.774 96.6301 478.464 85.7661C474.059 89.8768 451.333 101.622 395.662 115.715Z" fill="#E63715"/>
<path d="M592.095 153.842C581.524 158.07 565.48 157.717 558.727 160.947C562.25 160.947 587.632 172.762 598.652 165.007C604.292 161.038 603.05 155.195 621.997 141.661C632.824 134.894 637.9 133.109 635.87 133.541C598.652 141.468 605.308 148.557 592.095 153.842Z" fill="#E63715"/>
<path d="M596.499 175.613C585.929 179.137 566.256 184.128 557.741 186.184C568.312 186.184 585.795 191.736 591.885 186.661C595.516 183.635 607.069 174.439 613.236 173.852C612.061 172.971 607.069 172.09 596.499 175.613Z" fill="#E63715"/>
<path d="M493.438 91.0504C507.532 87.2339 540.124 75.3726 557.741 58.4593C553.043 71.0845 533.606 95.2779 493.438 91.0504Z" fill="#E63715"/>
<path d="M630.073 380.893L635.318 388.385C527.237 368.718 472.541 386.326 471.23 386.326C470.181 386.326 462.801 395.442 459.242 400H423.839C421.142 393.407 416.097 388.137 413.911 386.326C361.276 372.839 288.348 382.642 248.887 388.199L254.319 380.707C365.397 360.851 402.111 373.401 412.038 374.9C419.98 376.099 426.212 384.64 428.335 388.761H456.057C457.556 385.914 464.674 379.333 468.233 376.398C500.151 363.361 590.362 371.902 630.073 380.893Z" fill="#E63715"/>
<path d="M468.233 369.095C484.03 359.604 538.289 346.617 628.95 370.593C592.298 364.349 508.843 355.308 468.233 369.095Z" fill="#E63715"/>
<path d="M422.154 371.155C408.48 360.852 358.654 343.431 255.256 370.779C294.967 365.347 367.158 354.973 422.154 371.155Z" fill="#E63715"/>
<path d="M371.582 338.746C309.543 332.452 210.865 357.353 169.281 370.59C183.517 367.155 230.084 358.714 302.462 352.42C392.936 344.553 415.601 358.976 424.967 362.722C432.459 365.719 439.827 375.21 442.574 379.581C443.473 377.932 446.695 374.273 448.194 372.65C462.43 361.224 477.602 352.045 535.67 350.172C582.124 348.674 671.036 357.54 709.686 362.16C684.66 353.469 625.331 345.052 598.795 341.93C505.463 332.243 483.832 340.898 470.7 346.152L470.484 346.239C453.61 352.988 446.633 361.536 442.574 367.78C434.332 356.166 417.849 342.118 371.582 338.746Z" fill="#E63715"/>
<path d="M148.161 465L146.369 460.648H136.353L134.561 465H129.889L139.329 443.24H143.393L152.801 465H148.161ZM137.921 456.776H144.769L141.345 448.456L137.921 456.776ZM174.968 449.736H179.16V465.096C179.16 469.864 175.896 472.744 171.352 472.744C166.968 472.744 163.704 470.024 163.384 466.184H167.64C167.832 467.816 169.176 468.936 171.352 468.936C173.4 468.936 174.968 467.592 174.968 465.096V463.144C173.784 463.912 172.28 464.36 170.584 464.36C166.36 464.36 162.968 460.936 162.968 457C162.968 452.424 166.36 449.352 170.584 449.352C172.28 449.352 173.784 449.8 174.968 450.568V449.736ZM171.224 460.744C172.6 460.744 173.976 460.264 174.968 458.824V454.888C173.976 453.448 172.6 452.968 171.224 452.968C168.824 452.968 167.16 454.568 167.16 457C167.16 458.792 168.824 460.744 171.224 460.744ZM194.311 449.736H198.503V465H194.311V464.136C193.127 464.904 191.623 465.384 189.927 465.384C185.703 465.384 182.311 461.8 182.311 457.384C182.311 452.936 185.703 449.352 189.927 449.352C191.623 449.352 193.127 449.832 194.311 450.6V449.736ZM190.567 461.576C191.943 461.576 193.319 461.192 194.311 459.784V454.952C193.319 453.544 191.943 453.16 190.567 453.16C188.167 453.16 186.503 455.08 186.503 457.384C186.503 459.656 188.167 461.576 190.567 461.576ZM213.491 460.904L214.067 464.712C212.659 465.256 211.507 465.384 210.387 465.384C206.291 465.384 203.987 462.824 203.987 458.92V453.256H200.723V449.736H203.987V444.2H208.179V449.736H213.779V453.256H208.179V458.92C208.179 460.712 209.299 461.512 210.867 461.512C211.827 461.512 212.723 461.224 213.491 460.904ZM225.624 449.352C229.688 449.352 232.376 452.232 232.376 456.712V465H228.184V456.968C228.184 454.472 226.936 453.16 224.728 453.16C223.576 453.16 222.296 453.832 221.208 455.112V465H217.016V442.28H221.208V450.888C222.456 449.896 223.896 449.352 225.624 449.352ZM243.308 449.352C248.556 449.352 251.724 453.32 250.924 458.6H239.724C240.044 460.36 241.196 461.704 243.596 461.704C244.716 461.704 245.484 461.512 246.028 460.84H250.668C249.644 463.72 246.924 465.384 243.564 465.384C238.668 465.384 235.436 461.928 235.436 457.384C235.436 452.84 238.636 449.352 243.308 449.352ZM243.34 452.904C241.292 452.904 240.204 454.152 239.82 455.752H246.764C246.54 453.8 245.292 452.904 243.34 452.904ZM258.239 451.496C259.615 450.184 261.375 449.48 263.647 449.48V453.448C261.279 453.576 259.551 454.28 258.239 455.752V465H254.047V449.736H258.239V451.496ZM269.17 446.76C267.73 446.76 266.61 445.704 266.61 444.296C266.61 442.856 267.73 441.8 269.17 441.8C270.578 441.8 271.73 442.856 271.73 444.296C271.73 445.704 270.578 446.76 269.17 446.76ZM267.09 449.736H271.282V465H267.09V449.736ZM284.374 449.352C288.438 449.352 291.126 452.232 291.126 456.712V465H286.934V456.968C286.934 454.472 285.686 453.16 283.478 453.16C282.326 453.16 281.046 453.832 279.958 455.112V465H275.766V449.736H279.958V450.888C281.206 449.896 282.646 449.352 284.374 449.352ZM305.749 449.736H309.941V465.096C309.941 469.864 306.677 472.744 302.133 472.744C297.749 472.744 294.485 470.024 294.165 466.184H298.421C298.613 467.816 299.957 468.936 302.133 468.936C304.181 468.936 305.749 467.592 305.749 465.096V463.144C304.565 463.912 303.061 464.36 301.365 464.36C297.141 464.36 293.749 460.936 293.749 457C293.749 452.424 297.141 449.352 301.365 449.352C303.061 449.352 304.565 449.8 305.749 450.568V449.736ZM302.005 460.744C303.381 460.744 304.757 460.264 305.749 458.824V454.888C304.757 453.448 303.381 452.968 302.005 452.968C299.605 452.968 297.941 454.568 297.941 457C297.941 458.792 299.605 460.744 302.005 460.744ZM329.689 449.352C334.457 449.352 337.785 452.648 337.785 457.384C337.785 462.088 334.457 465.384 329.689 465.384C324.889 465.384 321.561 462.088 321.561 457.384C321.561 452.648 324.889 449.352 329.689 449.352ZM329.689 461.576C331.993 461.576 333.593 459.848 333.593 457.384C333.593 454.888 331.993 453.16 329.689 453.16C327.353 453.16 325.753 454.888 325.753 457.384C325.753 459.848 327.353 461.576 329.689 461.576ZM352.934 449.736V453.256H347.014V465H342.822V453.256H338.598V449.736H342.822V448.424C342.822 444.36 345.702 441.896 349.574 441.896C350.662 441.896 351.686 442.056 352.902 442.408L352.326 445.96C351.558 445.704 350.63 445.512 350.086 445.512C348.198 445.512 347.014 446.632 347.014 448.424V449.736H352.934ZM377.283 465L372.291 458.088H367.811V465H363.459V443.24H372.643C377.539 443.24 381.155 446.184 381.155 450.664C381.155 453.704 379.491 456.04 376.899 457.224L382.563 465H377.283ZM367.811 447.272V454.056H372.483C374.883 454.056 376.867 452.744 376.867 450.664C376.867 448.584 374.883 447.272 372.483 447.272H367.811ZM391.058 449.352C396.306 449.352 399.474 453.32 398.674 458.6H387.474C387.794 460.36 388.946 461.704 391.346 461.704C392.466 461.704 393.234 461.512 393.778 460.84H398.418C397.394 463.72 394.674 465.384 391.314 465.384C386.418 465.384 383.186 461.928 383.186 457.384C383.186 452.84 386.386 449.352 391.058 449.352ZM391.09 452.904C389.042 452.904 387.954 454.152 387.57 455.752H394.514C394.29 453.8 393.042 452.904 391.09 452.904ZM413.374 449.736H417.566V465H413.374V464.136C412.19 464.904 410.686 465.384 408.99 465.384C404.766 465.384 401.374 461.8 401.374 457.384C401.374 452.936 404.766 449.352 408.99 449.352C410.686 449.352 412.19 449.832 413.374 450.6V449.736ZM409.63 461.576C411.006 461.576 412.382 461.192 413.374 459.784V454.952C412.382 453.544 411.006 453.16 409.63 453.16C407.23 453.16 405.566 455.08 405.566 457.384C405.566 459.656 407.23 461.576 409.63 461.576ZM432.561 442.28H436.753V465H432.561V464.136C431.377 464.904 429.873 465.384 428.177 465.384C423.953 465.384 420.561 461.8 420.561 457.352C420.561 452.936 423.953 449.352 428.177 449.352C429.873 449.352 431.377 449.832 432.561 450.6V442.28ZM428.817 461.576C430.193 461.576 431.569 461.192 432.561 459.784V454.952C431.569 453.544 430.193 453.16 428.817 453.16C426.417 453.16 424.753 455.08 424.753 457.352C424.753 459.656 426.417 461.576 428.817 461.576ZM447.777 449.352C453.025 449.352 456.193 453.32 455.393 458.6H444.193C444.513 460.36 445.665 461.704 448.065 461.704C449.185 461.704 449.953 461.512 450.497 460.84H455.137C454.113 463.72 451.393 465.384 448.033 465.384C443.137 465.384 439.905 461.928 439.905 457.384C439.905 452.84 443.105 449.352 447.777 449.352ZM447.809 452.904C445.761 452.904 444.673 454.152 444.289 455.752H451.233C451.009 453.8 449.761 452.904 447.809 452.904ZM462.708 451.496C464.084 450.184 465.844 449.48 468.116 449.48V453.448C465.748 453.576 464.02 454.28 462.708 455.752V465H458.516V449.736H462.708V451.496ZM473.27 459.72C473.526 461.448 474.774 461.992 476.566 461.992C478.166 461.992 479.286 461.576 479.286 460.712C479.286 460.104 478.774 459.592 477.718 459.4L474.422 458.824C472.182 458.44 469.91 457.224 469.91 454.344C469.91 451.208 472.566 449.32 476.438 449.32C479.19 449.32 482.838 450.088 483.19 454.472H479.318C479.222 453.096 477.91 452.648 476.438 452.648C474.838 452.648 474.07 453.192 474.07 453.928C474.07 454.504 474.486 455.176 475.958 455.432L478.71 455.88C481.078 456.296 483.286 457.384 483.286 460.328C483.286 463.72 480.342 465.384 476.47 465.384C473.11 465.384 469.718 464.136 469.398 459.688L473.27 459.72ZM506.155 449.736H510.347V465H506.155V464.136C504.971 464.904 503.467 465.384 501.771 465.384C497.547 465.384 494.155 461.8 494.155 457.384C494.155 452.936 497.547 449.352 501.771 449.352C503.467 449.352 504.971 449.832 506.155 450.6V449.736ZM502.411 461.576C503.787 461.576 505.163 461.192 506.155 459.784V454.952C505.163 453.544 503.787 453.16 502.411 453.16C500.011 453.16 498.347 455.08 498.347 457.384C498.347 459.656 500.011 461.576 502.411 461.576ZM522.999 449.352C527.063 449.352 529.751 452.232 529.751 456.712V465H525.559V456.968C525.559 454.472 524.311 453.16 522.103 453.16C520.951 453.16 519.671 453.832 518.583 455.112V465H514.391V449.736H518.583V450.888C519.831 449.896 521.271 449.352 522.999 449.352ZM544.811 442.28H549.003V465H544.811V464.136C543.627 464.904 542.123 465.384 540.427 465.384C536.203 465.384 532.811 461.8 532.811 457.352C532.811 452.936 536.203 449.352 540.427 449.352C542.123 449.352 543.627 449.832 544.811 450.6V442.28ZM541.067 461.576C542.443 461.576 543.819 461.192 544.811 459.784V454.952C543.819 453.544 542.443 453.16 541.067 453.16C538.667 453.16 537.003 455.08 537.003 457.352C537.003 459.656 538.667 461.576 541.067 461.576ZM565.936 460.968H577.168V465H561.584V443.24H565.936V460.968ZM587.027 449.352C592.275 449.352 595.443 453.32 594.643 458.6H583.443C583.763 460.36 584.915 461.704 587.315 461.704C588.435 461.704 589.203 461.512 589.747 460.84H594.387C593.363 463.72 590.643 465.384 587.283 465.384C582.387 465.384 579.155 461.928 579.155 457.384C579.155 452.84 582.355 449.352 587.027 449.352ZM587.059 452.904C585.011 452.904 583.923 454.152 583.539 455.752H590.483C590.259 453.8 589.011 452.904 587.059 452.904ZM609.343 449.736H613.535V465H609.343V464.136C608.159 464.904 606.655 465.384 604.959 465.384C600.735 465.384 597.343 461.8 597.343 457.384C597.343 452.936 600.735 449.352 604.959 449.352C606.655 449.352 608.159 449.832 609.343 450.6V449.736ZM605.599 461.576C606.975 461.576 608.351 461.192 609.343 459.784V454.952C608.351 453.544 606.975 453.16 605.599 453.16C603.199 453.16 601.535 455.08 601.535 457.384C601.535 459.656 603.199 461.576 605.599 461.576ZM628.53 442.28H632.722V465H628.53V464.136C627.346 464.904 625.842 465.384 624.146 465.384C619.922 465.384 616.53 461.8 616.53 457.352C616.53 452.936 619.922 449.352 624.146 449.352C625.842 449.352 627.346 449.832 628.53 450.6V442.28ZM624.786 461.576C626.162 461.576 627.538 461.192 628.53 459.784V454.952C627.538 453.544 626.162 453.16 624.786 453.16C622.386 453.16 620.722 455.08 620.722 457.352C620.722 459.656 622.386 461.576 624.786 461.576ZM643.746 449.352C648.994 449.352 652.162 453.32 651.362 458.6H640.162C640.482 460.36 641.634 461.704 644.034 461.704C645.154 461.704 645.922 461.512 646.466 460.84H651.106C650.082 463.72 647.362 465.384 644.002 465.384C639.106 465.384 635.874 461.928 635.874 457.384C635.874 452.84 639.074 449.352 643.746 449.352ZM643.778 452.904C641.73 452.904 640.642 454.152 640.258 455.752H647.202C646.978 453.8 645.73 452.904 643.778 452.904ZM658.677 451.496C660.053 450.184 661.813 449.48 664.085 449.48V453.448C661.717 453.576 659.989 454.28 658.677 455.752V465H654.485V449.736H658.677V451.496ZM669.238 459.72C669.494 461.448 670.742 461.992 672.534 461.992C674.134 461.992 675.254 461.576 675.254 460.712C675.254 460.104 674.742 459.592 673.686 459.4L670.39 458.824C668.15 458.44 665.878 457.224 665.878 454.344C665.878 451.208 668.534 449.32 672.406 449.32C675.158 449.32 678.806 450.088 679.158 454.472H675.286C675.19 453.096 673.878 452.648 672.406 452.648C670.806 452.648 670.038 453.192 670.038 453.928C670.038 454.504 670.454 455.176 671.926 455.432L674.678 455.88C677.046 456.296 679.254 457.384 679.254 460.328C679.254 463.72 676.31 465.384 672.438 465.384C669.078 465.384 665.686 464.136 665.366 459.688L669.238 459.72Z" fill="white"/>
<rect x="925" y="342" width="393" height="64" rx="12" fill="#E63715"/>
<path d="M1061.3 373.552C1063.53 373.984 1064.59 375.592 1064.59 377.536C1064.59 380.2 1062.28 382 1058.66 382H1051.32V365.68H1058.4C1061.78 365.68 1063.8 367.288 1063.8 369.88C1063.8 371.584 1062.86 373.024 1061.3 373.552ZM1058.11 367.96H1053.91V372.76H1057.99C1060.17 372.76 1061.37 371.728 1061.37 370.216C1061.37 368.8 1060.2 367.96 1058.11 367.96ZM1058.56 379.72C1060.82 379.72 1062.04 378.616 1062.04 377.224C1062.04 375.76 1060.75 374.896 1058.66 374.896H1053.91V379.72H1058.56ZM1072.65 370.432C1076.15 370.432 1078.65 372.904 1078.65 376.36C1078.65 379.816 1076.15 382.288 1072.65 382.288C1069.14 382.288 1066.65 379.816 1066.65 376.36C1066.65 372.904 1069.14 370.432 1072.65 370.432ZM1072.65 380.032C1074.69 380.032 1076.15 378.472 1076.15 376.36C1076.15 374.224 1074.69 372.688 1072.65 372.688C1070.61 372.688 1069.14 374.224 1069.14 376.36C1069.14 378.472 1070.61 380.032 1072.65 380.032ZM1086.99 370.432C1090.5 370.432 1092.99 372.904 1092.99 376.36C1092.99 379.816 1090.5 382.288 1086.99 382.288C1083.49 382.288 1080.99 379.816 1080.99 376.36C1080.99 372.904 1083.49 370.432 1086.99 370.432ZM1086.99 380.032C1089.03 380.032 1090.5 378.472 1090.5 376.36C1090.5 374.224 1089.03 372.688 1086.99 372.688C1084.95 372.688 1083.49 374.224 1083.49 376.36C1083.49 378.472 1084.95 380.032 1086.99 380.032ZM1104.22 382L1100.4 377.176L1098.27 379.336V382H1095.77V364.96H1098.27V376.048L1103.57 370.72H1106.74L1102.11 375.424L1107.46 382H1104.22ZM1128.75 382L1127.07 378.088H1119.1L1117.42 382H1114.66L1121.88 365.68H1124.31L1131.51 382H1128.75ZM1120.06 375.784H1126.08L1123.08 368.752L1120.06 375.784ZM1146.4 365.392C1149.4 365.392 1152.57 366.64 1152.95 370.408H1150.41C1150.12 368.68 1148.95 367.624 1146.57 367.624C1144.48 367.624 1143.11 368.512 1143.11 370.096C1143.11 371.392 1144.07 372.064 1145.83 372.4L1148.11 372.856C1151.15 373.456 1152.91 374.752 1152.91 377.272C1152.91 380.32 1150.41 382.288 1146.67 382.288C1142.68 382.288 1140.02 380.2 1139.71 376.696H1142.27C1142.59 378.76 1144.22 379.984 1146.81 379.984C1148.95 379.984 1150.27 379.096 1150.27 377.584C1150.27 376.6 1149.62 375.712 1147.7 375.376L1144.84 374.824C1141.79 374.248 1140.38 372.688 1140.38 370.288C1140.38 367.312 1142.78 365.392 1146.4 365.392ZM1161.8 370.456C1164.96 370.456 1167.53 373.072 1167.53 376.36C1167.53 379.648 1164.96 382.264 1161.8 382.264C1160.36 382.264 1159.13 381.832 1158.2 381.112V387.568H1155.7V370.72H1158.2V371.608C1159.13 370.888 1160.36 370.456 1161.8 370.456ZM1161.44 380.104C1163.52 380.104 1165.04 378.376 1165.04 376.36C1165.04 374.344 1163.52 372.616 1161.44 372.616C1160.19 372.616 1159.04 373.096 1158.2 374.296V378.424C1159.04 379.624 1160.19 380.104 1161.44 380.104ZM1175.87 370.432C1179.37 370.432 1181.87 372.904 1181.87 376.36C1181.87 379.816 1179.37 382.288 1175.87 382.288C1172.36 382.288 1169.87 379.816 1169.87 376.36C1169.87 372.904 1172.36 370.432 1175.87 370.432ZM1175.87 380.032C1177.91 380.032 1179.37 378.472 1179.37 376.36C1179.37 374.224 1177.91 372.688 1175.87 372.688C1173.83 372.688 1172.36 374.224 1172.36 376.36C1172.36 378.472 1173.83 380.032 1175.87 380.032ZM1192.42 379.552L1192.78 381.832C1191.8 382.192 1190.98 382.288 1190.21 382.288C1187.33 382.288 1185.8 380.56 1185.8 377.656V372.808H1183.13V370.72H1185.8V366.568H1188.29V370.72H1192.47V372.808H1188.29V377.656C1188.29 379.288 1189.11 379.984 1190.5 379.984C1191.17 379.984 1191.84 379.792 1192.42 379.552Z" fill="white"/>
<rect x="925.5" y="422.5" width="392" height="63" rx="11.5" stroke="white"/>
<path d="M987.812 445.392C990.812 445.392 993.98 446.64 994.364 450.408H991.82C991.532 448.68 990.356 447.624 987.98 447.624C985.892 447.624 984.524 448.512 984.524 450.096C984.524 451.392 985.484 452.064 987.236 452.4L989.516 452.856C992.564 453.456 994.316 454.752 994.316 457.272C994.316 460.32 991.82 462.288 988.076 462.288C984.092 462.288 981.428 460.2 981.116 456.696H983.684C983.996 458.76 985.628 459.984 988.22 459.984C990.356 459.984 991.676 459.096 991.676 457.584C991.676 456.6 991.028 455.712 989.108 455.376L986.252 454.824C983.204 454.248 981.788 452.688 981.788 450.288C981.788 447.312 984.188 445.392 987.812 445.392ZM1003.21 450.456C1006.37 450.456 1008.94 453.072 1008.94 456.36C1008.94 459.648 1006.37 462.264 1003.21 462.264C1001.77 462.264 1000.54 461.832 999.607 461.112V467.568H997.111V450.72H999.607V451.608C1000.54 450.888 1001.77 450.456 1003.21 450.456ZM1002.85 460.104C1004.93 460.104 1006.45 458.376 1006.45 456.36C1006.45 454.344 1004.93 452.616 1002.85 452.616C1001.6 452.616 1000.45 453.096 999.607 454.296V458.424C1000.45 459.624 1001.6 460.104 1002.85 460.104ZM1017.28 450.432C1020.78 450.432 1023.28 452.904 1023.28 456.36C1023.28 459.816 1020.78 462.288 1017.28 462.288C1013.77 462.288 1011.28 459.816 1011.28 456.36C1011.28 452.904 1013.77 450.432 1017.28 450.432ZM1017.28 460.032C1019.32 460.032 1020.78 458.472 1020.78 456.36C1020.78 454.224 1019.32 452.688 1017.28 452.688C1015.24 452.688 1013.77 454.224 1013.77 456.36C1013.77 458.472 1015.24 460.032 1017.28 460.032ZM1032.08 450.432C1035.01 450.432 1037 452.448 1037 455.712V462H1034.51V455.856C1034.51 453.792 1033.4 452.688 1031.58 452.688C1030.5 452.688 1029.32 453.288 1028.43 454.392V462H1025.94V450.72H1028.43V451.728C1029.42 450.888 1030.64 450.432 1032.08 450.432ZM1041.61 458.28C1041.87 459.672 1042.9 460.248 1044.61 460.248C1046.07 460.248 1047.08 459.768 1047.08 458.88C1047.08 458.208 1046.53 457.728 1045.57 457.56L1043.07 457.128C1041.34 456.84 1039.74 455.976 1039.74 453.936C1039.74 451.752 1041.63 450.408 1044.44 450.408C1046.62 450.408 1049.14 451.152 1049.38 454.104H1047.08C1046.96 452.88 1045.88 452.4 1044.44 452.4C1043 452.4 1042.21 452.928 1042.21 453.72C1042.21 454.32 1042.64 454.896 1043.96 455.112L1046.07 455.448C1047.78 455.76 1049.46 456.504 1049.46 458.688C1049.46 461.064 1047.37 462.288 1044.54 462.288C1041.87 462.288 1039.59 461.232 1039.3 458.256L1041.61 458.28ZM1057.54 450.432C1061.05 450.432 1063.54 452.904 1063.54 456.36C1063.54 459.816 1061.05 462.288 1057.54 462.288C1054.04 462.288 1051.54 459.816 1051.54 456.36C1051.54 452.904 1054.04 450.432 1057.54 450.432ZM1057.54 460.032C1059.58 460.032 1061.05 458.472 1061.05 456.36C1061.05 454.224 1059.58 452.688 1057.54 452.688C1055.5 452.688 1054.04 454.224 1054.04 456.36C1054.04 458.472 1055.5 460.032 1057.54 460.032ZM1068.7 452.256C1069.73 451.128 1071.15 450.48 1072.88 450.48V452.832C1071.08 452.904 1069.71 453.576 1068.7 454.896V462H1066.2V450.72H1068.7V452.256ZM1076.34 458.28C1076.61 459.672 1077.64 460.248 1079.34 460.248C1080.81 460.248 1081.81 459.768 1081.81 458.88C1081.81 458.208 1081.26 457.728 1080.3 457.56L1077.81 457.128C1076.08 456.84 1074.47 455.976 1074.47 453.936C1074.47 451.752 1076.37 450.408 1079.17 450.408C1081.36 450.408 1083.88 451.152 1084.12 454.104H1081.81C1081.69 452.88 1080.61 452.4 1079.17 452.4C1077.73 452.4 1076.94 452.928 1076.94 453.72C1076.94 454.32 1077.37 454.896 1078.69 455.112L1080.81 455.448C1082.51 455.76 1084.19 456.504 1084.19 458.688C1084.19 461.064 1082.1 462.288 1079.27 462.288C1076.61 462.288 1074.33 461.232 1074.04 458.256L1076.34 458.28ZM1093.28 450.432C1096.21 450.432 1098.2 452.448 1098.2 455.712V462H1095.7V455.856C1095.7 453.792 1094.6 452.688 1092.77 452.688C1091.69 452.688 1090.52 453.288 1089.63 454.392V462H1087.13V444.96H1089.63V451.728C1090.61 450.888 1091.84 450.432 1093.28 450.432ZM1102.92 448.104C1102.03 448.104 1101.34 447.456 1101.34 446.568C1101.34 445.68 1102.03 445.032 1102.92 445.032C1103.79 445.032 1104.51 445.68 1104.51 446.568C1104.51 447.456 1103.79 448.104 1102.92 448.104ZM1101.7 450.72H1104.17V462H1101.7V450.72ZM1114.07 450.456C1117.23 450.456 1119.8 453.072 1119.8 456.36C1119.8 459.648 1117.23 462.264 1114.07 462.264C1112.63 462.264 1111.4 461.832 1110.47 461.112V467.568H1107.97V450.72H1110.47V451.608C1111.4 450.888 1112.63 450.456 1114.07 450.456ZM1113.71 460.104C1115.79 460.104 1117.31 458.376 1117.31 456.36C1117.31 454.344 1115.79 452.616 1113.71 452.616C1112.46 452.616 1111.31 453.096 1110.47 454.296V458.424C1111.31 459.624 1112.46 460.104 1113.71 460.104ZM1121.24 464.664L1122.41 461.904C1121.77 461.664 1121.45 461.208 1121.45 460.632C1121.45 459.792 1122.15 459.144 1122.99 459.144C1123.85 459.144 1124.55 459.792 1124.55 460.632C1124.55 460.992 1124.53 461.16 1124.05 462.072L1122.75 464.664H1121.24ZM1141.07 459.888C1143.78 459.888 1145.65 458.352 1146.3 455.808H1148.96C1148.2 459.72 1145.15 462.312 1141.07 462.312C1136.36 462.312 1132.6 458.712 1132.6 453.84C1132.6 448.944 1136.36 445.392 1141.07 445.392C1145.15 445.392 1148.2 447.936 1148.96 451.848H1146.3C1145.65 449.328 1143.78 447.792 1141.07 447.792C1137.73 447.792 1135.21 450.312 1135.21 453.84C1135.21 457.344 1137.73 459.888 1141.07 459.888ZM1157.11 450.432C1160.61 450.432 1163.11 452.904 1163.11 456.36C1163.11 459.816 1160.61 462.288 1157.11 462.288C1153.6 462.288 1151.11 459.816 1151.11 456.36C1151.11 452.904 1153.6 450.432 1157.11 450.432ZM1157.11 460.032C1159.15 460.032 1160.61 458.472 1160.61 456.36C1160.61 454.224 1159.15 452.688 1157.11 452.688C1155.07 452.688 1153.6 454.224 1153.6 456.36C1153.6 458.472 1155.07 460.032 1157.11 460.032ZM1171.91 450.432C1174.84 450.432 1176.83 452.448 1176.83 455.712V462H1174.34V455.856C1174.34 453.792 1173.23 452.688 1171.41 452.688C1170.33 452.688 1169.15 453.288 1168.26 454.392V462H1165.77V450.72H1168.26V451.728C1169.25 450.888 1170.47 450.432 1171.91 450.432ZM1187.56 459.552L1187.92 461.832C1186.93 462.192 1186.12 462.288 1185.35 462.288C1182.47 462.288 1180.93 460.56 1180.93 457.656V452.808H1178.27V450.72H1180.93V446.568H1183.43V450.72H1187.6V452.808H1183.43V457.656C1183.43 459.288 1184.24 459.984 1185.64 459.984C1186.31 459.984 1186.98 459.792 1187.56 459.552ZM1198.6 450.72H1201.07V462H1198.6V461.112C1197.64 461.856 1196.41 462.288 1194.97 462.288C1191.81 462.288 1189.26 459.648 1189.26 456.36C1189.26 453.072 1191.81 450.432 1194.97 450.432C1196.41 450.432 1197.64 450.864 1198.6 451.608V450.72ZM1195.33 460.032C1196.58 460.032 1197.76 459.6 1198.6 458.4V454.32C1197.76 453.12 1196.58 452.688 1195.33 452.688C1193.27 452.688 1191.76 454.344 1191.76 456.36C1191.76 458.376 1193.27 460.032 1195.33 460.032ZM1209.75 460.032C1211.26 460.032 1212.39 459.168 1212.7 457.896H1215.24C1214.83 460.488 1212.58 462.288 1209.75 462.288C1206.36 462.288 1203.79 459.72 1203.79 456.36C1203.79 453.024 1206.36 450.432 1209.75 450.432C1212.58 450.432 1214.83 452.232 1215.24 454.824H1212.7C1212.39 453.552 1211.26 452.688 1209.75 452.688C1207.66 452.688 1206.29 454.32 1206.29 456.36C1206.29 458.4 1207.66 460.032 1209.75 460.032ZM1225.81 459.552L1226.17 461.832C1225.18 462.192 1224.37 462.288 1223.6 462.288C1220.72 462.288 1219.18 460.56 1219.18 457.656V452.808H1216.52V450.72H1219.18V446.568H1221.68V450.72H1225.85V452.808H1221.68V457.656C1221.68 459.288 1222.49 459.984 1223.89 459.984C1224.56 459.984 1225.23 459.792 1225.81 459.552ZM1249.38 445.68V454.824C1249.38 459.408 1246.52 462.288 1242.22 462.288C1237.95 462.288 1235.07 459.408 1235.07 454.824V445.68H1237.66V454.824C1237.66 457.824 1239.49 459.888 1242.22 459.888C1244.96 459.888 1246.81 457.824 1246.81 454.824V445.68H1249.38ZM1254.12 458.28C1254.38 459.672 1255.41 460.248 1257.12 460.248C1258.58 460.248 1259.59 459.768 1259.59 458.88C1259.59 458.208 1259.04 457.728 1258.08 457.56L1255.58 457.128C1253.85 456.84 1252.24 455.976 1252.24 453.936C1252.24 451.752 1254.14 450.408 1256.95 450.408C1259.13 450.408 1261.65 451.152 1261.89 454.104H1259.59C1259.47 452.88 1258.39 452.4 1256.95 452.4C1255.51 452.4 1254.72 452.928 1254.72 453.72C1254.72 454.32 1255.15 454.896 1256.47 455.112L1258.58 455.448C1260.28 455.76 1261.96 456.504 1261.96 458.688C1261.96 461.064 1259.88 462.288 1257.04 462.288C1254.38 462.288 1252.1 461.232 1251.81 458.256L1254.12 458.28Z" fill="white"/>
<rect x="1009" y="53" width="286" height="76" fill="white"/>
<rect x="1009" y="53" width="286" height="76" stroke="white" stroke-width="2"/>
<path d="M1077.42 79.356C1081.1 79.356 1085.87 80.796 1086.38 86.364H1082.06C1081.78 84.348 1080.5 83.1 1077.74 83.1C1075.34 83.1 1073.78 84.028 1073.78 85.82C1073.78 87.388 1074.93 88.06 1077.01 88.476L1079.57 88.988C1083.82 89.852 1086.26 91.484 1086.26 95.068C1086.26 99.196 1082.86 101.884 1077.74 101.884C1072.37 101.884 1068.62 99.004 1068.3 94.332H1072.62C1072.98 96.604 1074.99 98.012 1078 98.012C1080.4 98.012 1081.78 97.148 1081.78 95.612C1081.78 94.652 1081.23 93.66 1078.9 93.244L1075.38 92.572C1071.06 91.74 1069.17 89.564 1069.17 86.204C1069.17 82.044 1072.46 79.356 1077.42 79.356ZM1106.22 83.772H1094.58V88.764H1104.94V92.796H1094.58V97.468H1106.22V101.5H1090.22V79.74H1106.22V83.772ZM1118.2 79.74C1123.42 79.74 1126.87 82.78 1126.87 87.356C1126.87 92.22 1123.16 95.42 1117.56 95.42H1114.17V101.5H1109.82V79.74H1118.2ZM1118.04 91.42C1120.76 91.42 1122.59 89.788 1122.59 87.356C1122.59 85.212 1120.76 83.74 1118.04 83.74H1114.17V91.42H1118.04ZM1147.61 79.74V83.772H1140.22V101.5H1135.87V83.772H1128.47V79.74H1147.61ZM1149.41 101.724C1148.03 101.724 1146.88 100.668 1146.88 99.26C1146.88 97.884 1148.03 96.828 1149.41 96.828C1150.82 96.828 1151.97 97.884 1151.97 99.26C1151.97 100.668 1150.82 101.724 1149.41 101.724ZM1169.07 97.948H1177.59V101.5H1162.9V99.26L1169.65 91.132C1171.63 88.732 1173.01 87.324 1173.01 85.724C1173.01 84.476 1172.21 83.1 1169.97 83.1C1167.99 83.1 1166.83 84.284 1166.61 86.364H1162.29C1162.39 82.14 1165.43 79.356 1170.13 79.356C1174.99 79.356 1177.36 82.332 1177.36 85.756C1177.36 87.996 1175.99 89.692 1173.3 92.892L1169.07 97.948ZM1190.38 79.356C1196.59 79.356 1200.17 84.124 1200.17 90.62C1200.17 97.116 1196.59 101.884 1190.38 101.884C1184.17 101.884 1180.56 97.116 1180.56 90.62C1180.56 84.124 1184.17 79.356 1190.38 79.356ZM1190.38 97.948C1194.03 97.948 1195.79 94.748 1195.79 90.62C1195.79 86.492 1194.03 83.292 1190.38 83.292C1186.7 83.292 1184.94 86.492 1184.94 90.62C1184.94 94.748 1186.7 97.948 1190.38 97.948ZM1208.7 97.948H1217.21V101.5H1202.52V99.26L1209.28 91.132C1211.26 88.732 1212.64 87.324 1212.64 85.724C1212.64 84.476 1211.84 83.1 1209.6 83.1C1207.61 83.1 1206.46 84.284 1206.24 86.364H1201.92C1202.01 82.14 1205.05 79.356 1209.76 79.356C1214.62 79.356 1216.99 82.332 1216.99 85.756C1216.99 87.996 1215.61 89.692 1212.92 92.892L1208.7 97.948ZM1227.62 86.588C1232.52 86.588 1236 89.852 1236 94.172C1236 98.556 1232.52 101.884 1227.56 101.884C1222.56 101.884 1219.11 98.492 1219.11 94.3C1219.11 92.412 1219.84 90.844 1221.12 88.796L1226.85 79.74H1231.91L1227.62 86.588ZM1227.56 98.396C1230.05 98.396 1231.78 96.572 1231.78 94.428C1231.78 92.284 1230.08 90.396 1227.56 90.396C1226.47 90.396 1225.48 90.684 1224.71 91.228C1223.68 92.636 1223.3 93.436 1223.3 94.492C1223.3 96.572 1225.06 98.396 1227.56 98.396Z" fill="#015B51"/>
<circle cx="1286" cy="62" r="4" fill="#142218"/>
<circle cx="1021" cy="62" r="4" fill="#142218"/>
<circle cx="1286" cy="118" r="4" fill="#142218"/>
<circle cx="1021" cy="118" r="4" fill="#142218"/>
</g>
<defs>
<linearGradient id="paint0_linear_975_4079" x1="1120.5" y1="294" x2="13.0001" y2="13" gradientUnits="userSpaceOnUse">
<stop stop-color="#142218"/>
<stop offset="1" stop-color="#015B51"/>
</linearGradient>
<clipPath id="clip0_975_4079">
<rect width="1440" height="548" fill="white"/>
</clipPath>
</defs>
</svg>
