<svg viewBox="120 50 630 430" fill="none" xmlns="http://www.w3.org/2000/svg">
  <path d="M151.162 225.551L130.866 212.318H200.131L175.325 324.316L127 339.163L151.162 225.551Z" fill="white"/>
  <path d="M241.691 212.318H316.755L310.634 239.753H249.101L237.18 295.267H267.464L271.008 278.484H253.289L258.121 257.182H307.735C305.05 270.092 299.101 298.689 296.781 309.792C294.461 320.894 286.15 323.24 282.284 323.025C267.786 323.455 234.474 324.057 217.206 323.025C199.938 321.992 196.266 306.887 196.588 299.463C198.95 283.863 205.093 248.855 210.763 233.62C216.433 218.386 233.744 213.071 241.691 212.318Z" fill="white"/>
  <path d="M333.508 212.318L309.345 323.025H347.361L358.959 270.415L384.088 323.025H416.626L441.111 212.318H404.706L394.075 262.346L368.624 212.318H333.508Z" fill="white"/>
  <path d="M430.157 323.025L454.964 212.318H495.557L470.428 323.025H430.157Z" fill="white"/>
  <path d="M605.737 212.318H507.799L502 239.107H531.317L512.31 323.025H552.58L571.91 239.107H600.261L605.737 212.318Z" fill="white"/>
  <path d="M617.013 212.318H740.08L709.797 239.107H654.062L650.518 256.214H694.655L689.823 278.807H645.364L642.464 295.59H708.83L701.098 323.025H593.495L617.013 212.318Z" fill="white"/>
  <path d="M395.662 115.715C339.992 129.809 304.969 171.436 303.172 186.184C309.029 175.613 332.713 173.852 353.381 169.447C378.424 164.111 405.352 164.162 405.352 164.162C405.352 164.162 350.86 193.405 364.832 187.945C373.314 184.631 414.64 177.482 437.938 178.541C452.825 179.218 469.669 187.55 509.294 186.184C534.839 185.303 542.825 176.849 558.389 172.789L543.647 173.852C512.035 178.879 501.953 168.273 489.915 164.162C495.2 163.575 507.884 162.224 516.341 161.519C526.911 160.639 588.292 139.986 601.784 130.689C628.088 112.564 641.283 112.902 665.206 88.4078C647.712 105.458 612.648 110.723 592.095 116.595C596.205 114.246 608.831 104.44 626.448 84.0044C644.066 63.569 671.372 58.4596 682.824 58.4593C661.096 49.9443 606.012 43.1323 559.503 84.0044C501.366 135.094 450.276 126.286 463.489 124.524C474.059 123.115 485.51 111.017 489.915 105.145C467.365 120.648 434.127 124.524 420.327 124.524C411.224 125.992 398.657 127.871 421.207 123.643C443.758 119.415 468.774 96.6301 478.464 85.7661C474.059 89.8768 451.333 101.622 395.662 115.715Z" fill="#E63715"/>
  <path d="M592.095 153.842C581.524 158.07 565.48 157.717 558.727 160.947C562.25 160.947 587.632 172.762 598.652 165.007C604.292 161.038 603.05 155.195 621.997 141.661C632.824 134.894 637.9 133.109 635.87 133.541C598.652 141.468 605.308 148.557 592.095 153.842Z" fill="#E63715"/>
  <path d="M596.499 175.613C585.929 179.137 566.256 184.128 557.741 186.184C568.312 186.184 585.795 191.736 591.885 186.661C595.516 183.635 607.069 174.439 613.236 173.852C612.061 172.971 607.069 172.09 596.499 175.613Z" fill="#E63715"/>
  <path d="M493.438 91.0504C507.532 87.2339 540.124 75.3726 557.741 58.4593C553.043 71.0845 533.606 95.2779 493.438 91.0504Z" fill="#E63715"/>
  <path d="M630.073 380.893L635.318 388.385C527.237 368.718 472.541 386.326 471.23 386.326C470.181 386.326 462.801 395.442 459.242 400H423.839C421.142 393.407 416.097 388.137 413.911 386.326C361.276 372.839 288.348 382.642 248.887 388.199L254.319 380.707C365.397 360.851 402.111 373.401 412.038 374.9C419.98 376.099 426.212 384.64 428.335 388.761H456.057C457.556 385.914 464.674 379.333 468.233 376.398C500.151 363.361 590.362 371.902 630.073 380.893Z" fill="#E63715"/>
  <path d="M468.233 369.095C484.03 359.604 538.289 346.617 628.95 370.593C592.298 364.349 508.843 355.308 468.233 369.095Z" fill="#E63715"/>
  <path d="M422.154 371.155C408.48 360.852 358.654 343.431 255.256 370.779C294.967 365.347 367.158 354.973 422.154 371.155Z" fill="#E63715"/>
  <path d="M371.582 338.746C309.543 332.452 210.865 357.353 169.281 370.59C183.517 367.155 230.084 358.714 302.462 352.42C392.936 344.553 415.601 358.976 424.967 362.722C432.459 365.719 439.827 375.21 442.574 379.581C443.473 377.932 446.695 374.273 448.194 372.65C462.43 361.224 477.602 352.045 535.67 350.172C582.124 348.674 671.036 357.54 709.686 362.16C684.66 353.469 625.331 345.052 598.795 341.93C505.463 332.243 483.832 340.898 470.7 346.152L470.484 346.239C453.61 352.988 446.633 361.536 442.574 367.78C434.332 356.166 417.849 342.118 371.582 338.746Z" fill="#E63715"/>
</svg>
